<svg width="512" height="512" viewBox="0 0 512 512" fill="none" xmlns="http://www.w3.org/2000/svg">
<path d="M256 448C362.039 448 448 362.039 448 256C448 149.961 362.039 64 256 64C149.961 64 64 149.961 64 256C64 362.039 149.961 448 256 448Z" fill="#C32361"/>
<path d="M383 153C406.62 181.777 419.677 217.772 420 255C414 254 360 242 306 249L291 217C352 192 379 157 383 153ZM365 134C362 138 337 171 279 193C260.423 159.698 239.713 127.631 217 97.0001C274 83.0001 330 102 365 134ZM186 108C208.016 138.209 228.379 169.588 247 202C170 223 103 222 95 222C100.416 197.295 111.44 174.165 127.218 154.398C142.997 134.631 163.109 118.757 186 108ZM92 251C99 251 179 252 260 228L274 256C202 277 158 328 134 366C105.68 334.526 90.6303 293.318 92 251ZM155 386C158 380 193 314 285 283C303 325 318 391 320 407C284 424 216 432 155 386ZM347 392C346 382 337 334 316 275C367 267 412 280 418 282C414.412 304.247 406.25 325.509 394.029 344.442C381.809 363.375 365.795 379.569 347 392Z" fill="#EA4C89"/>
</svg>
